<svg xmlns="http://www.w3.org/2000/svg" xmlns:xlink="http://www.w3.org/1999/xlink" viewBox="0 0 800 800" width="800" height="800" preserveAspectRatio="xMidYMid meet" style="width: 100%; height: 100%; transform: translate3d(0px, 0px, 0px); content-visibility: visible;"><defs><clipPath id="__lottie_element_170845"><rect width="800" height="800" x="0" y="0"></rect></clipPath></defs><g clip-path="url(#__lottie_element_170845)"><g transform="matrix(1,0,0,1,399.9999694824219,400.0000305175781)" opacity="1" style="display: block;"><g opacity="1" transform="matrix(1,0,0,1,0,0)"><path fill="rgb(228,137,123)" fill-opacity="1" d=" M240.22000122070312,-183.26600646972656 C245.2790069580078,-173.38099670410156 249.9250030517578,-163.4929962158203 254.33399963378906,-153.35699462890625 C258.71099853515625,-143.2220001220703 262.86700439453125,-132.97900390625 266.44500732421875,-122.2300033569336 C266.44500732421875,-122.2300033569336 267.75201416015625,-118.15399932861328 267.75201416015625,-118.15399932861328 C267.97100830078125,-117.43000030517578 268.3110046386719,-116.23899841308594 268.4880065917969,-115.39399719238281 C268.6669921875,-114.51100158691406 268.8599853515625,-113.5999984741211 268.9630126953125,-112.79199981689453 C269.468994140625,-109.46299743652344 269.5580139160156,-106.45700073242188 269.614013671875,-103.49800109863281 C269.7080078125,-97.60600280761719 269.30999755859375,-91.98699951171875 268.8190002441406,-86.39800262451172 C267.75,-75.23699951171875 266.0090026855469,-64.37999725341797 263.6159973144531,-53.4900016784668 C263.6159973144531,-53.4900016784668 253.14100646972656,-54.652000427246094 253.14100646972656,-54.652000427246094 C253.0050048828125,-65.41500091552734 252.90499877929688,-76.28399658203125 252.531005859375,-86.88500213623047 C252.3419952392578,-92.1760025024414 252.0399932861328,-97.4540023803711 251.5030059814453,-102.43199920654297 C251.23199462890625,-104.90399932861328 250.83200073242188,-107.33000183105469 250.3679962158203,-109.35800170898438 C250.25999450683594,-109.8949966430664 250.11599731445312,-110.30500030517578 249.9929962158203,-110.74800109863281 C249.84300231933594,-111.2229995727539 249.77699279785156,-111.33300018310547 249.57000732421875,-111.9000015258789 C249.57000732421875,-111.9000015258789 248.1300048828125,-115.51300048828125 248.1300048828125,-115.51300048828125 C244.13800048828125,-125.18099975585938 239.64500427246094,-134.93499755859375 235.06199645996094,-144.63900756835938 C235.06199645996094,-144.63900756835938 221.1929931640625,-173.7449951171875 221.1929931640625,-173.7449951171875 C221.1929931640625,-173.7449951171875 240.22000122070312,-183.26600646972656 240.22000122070312,-183.26600646972656z"></path></g><g opacity="1" transform="matrix(1,0,0,1,0,0)"><path fill="rgb(228,137,123)" fill-opacity="1" d=" M253.29200744628906,-57.926998138427734 C253.29200744628906,-57.926998138427734 248.4010009765625,-48.77799987792969 248.4010009765625,-48.77799987792969 C248.4010009765625,-48.77799987792969 264.02301025390625,-44.41999816894531 264.02301025390625,-44.41999816894531 C264.02301025390625,-44.41999816894531 266.9989929199219,-51.779998779296875 263.4549865722656,-57.582000732421875 C263.4549865722656,-57.582000732421875 253.29200744628906,-57.926998138427734 253.29200744628906,-57.926998138427734z"></path></g><g opacity="1" transform="matrix(1,0,0,1,0,0)"><path fill="rgb(228,137,123)" fill-opacity="1" d=" M242.41000366210938,-35.5890007019043 C242.41000366210938,-35.5890007019043 256.7749938964844,-34.45500183105469 256.7749938964844,-34.45500183105469 C256.7749938964844,-34.45500183105469 264.02301025390625,-44.41999816894531 264.02301025390625,-44.41999816894531 C264.02301025390625,-44.41999816894531 248.4010009765625,-48.77799987792969 248.4010009765625,-48.77799987792969 C248.4010009765625,-48.77799987792969 242.41000366210938,-35.5890007019043 242.41000366210938,-35.5890007019043z"></path></g><g opacity="1" transform="matrix(1,0,0,1,0,0)"><path fill="rgb(38,50,56)" fill-opacity="1" d=" M174.43899536132812,-249.29200744628906 C174.21400451660156,-248.1820068359375 173.4429931640625,-247.40199279785156 172.71800231933594,-247.5500030517578 C171.9929962158203,-247.69700622558594 171.58799743652344,-248.71600341796875 171.81300354003906,-249.8260040283203 C172.03900146484375,-250.93499755859375 172.8090057373047,-251.71499633789062 173.53399658203125,-251.56700134277344 C174.25900268554688,-251.4199981689453 174.66400146484375,-250.4010009765625 174.43899536132812,-249.29200744628906z"></path></g><g opacity="1" transform="matrix(1,0,0,1,0,0)"><path fill="rgb(222,87,83)" fill-opacity="1" d=" M173.5449981689453,-247.3820037841797 C173.5449981689453,-247.3820037841797 169.7209930419922,-241.49400329589844 166.3159942626953,-238.97000122070312 C167.906005859375,-236.73899841308594 171.41400146484375,-236.8979949951172 171.41400146484375,-236.8979949951172 C171.41400146484375,-236.8979949951172 173.5449981689453,-247.3820037841797 173.5449981689453,-247.3820037841797z"></path></g><g opacity="1" transform="matrix(1,0,0,1,0,0)"><path fill="rgb(38,50,56)" fill-opacity="1" d=" M179.7519989013672,-254.6269989013672 C179.572998046875,-254.6269989013672 179.39599609375,-254.69900512695312 179.26300048828125,-254.84100341796875 C177.2740020751953,-256.9960021972656 174.91099548339844,-256.6449890136719 174.80599975585938,-256.6319885253906 C174.4550018310547,-256.5690002441406 174.10299682617188,-256.8179931640625 174.04299926757812,-257.17999267578125 C173.98300170898438,-257.5409851074219 174.2259979248047,-257.8819885253906 174.58599853515625,-257.9440002441406 C174.71299743652344,-257.96600341796875 177.74200439453125,-258.4460144042969 180.24099731445312,-255.74400329589844 C180.48899841308594,-255.4739990234375 180.47300720214844,-255.05299377441406 180.20399475097656,-254.8040008544922 C180.0749969482422,-254.68600463867188 179.91400146484375,-254.6269989013672 179.7519989013672,-254.6269989013672z"></path></g><g opacity="1" transform="matrix(1,0,0,1,0,0)"><path fill="rgb(228,137,123)" fill-opacity="1" d=" M206.04400634765625,-233.68600463867188 C204.031005859375,-223.41700744628906 202.02200317382812,-204.60299682617188 209.20599365234375,-197.75100708007812 C209.20599365234375,-197.75100708007812 206.3990020751953,-187.33399963378906 187.3179931640625,-187.33399963378906 C166.33700561523438,-187.33399963378906 177.29100036621094,-197.75 177.29100036621094,-197.75 C188.74200439453125,-200.48500061035156 188.44700622558594,-208.97999572753906 186.45199584960938,-216.95899963378906 C186.45199584960938,-216.95899963378906 206.04400634765625,-233.68600463867188 206.04400634765625,-233.68600463867188z"></path></g><g opacity="1" transform="matrix(1,0,0,1,0,0)"><path fill="rgb(38,50,56)" fill-opacity="1" d=" M212.08599853515625,-191.26600646972656 C213.6009979248047,-196.29800415039062 215.2689971923828,-202.0570068359375 211.81900024414062,-203.86099243164062 C208.0229949951172,-205.84500122070312 187.2429962158203,-207.8699951171875 180.0780029296875,-204.1439971923828 C172.91299438476562,-200.41799926757812 174.94500732421875,-190.21200561523438 174.94500732421875,-190.21200561523438 C174.94500732421875,-190.21200561523438 212.08599853515625,-191.26600646972656 212.08599853515625,-191.26600646972656z"></path></g><g opacity="1" transform="matrix(1,0,0,1,0,0)"><path fill="rgb(64,123,255)" fill-opacity="1" d=" M256.1570129394531,285.2309875488281 C254.71800231933594,285.2309875488281 253.3280029296875,285.010009765625 252.78700256347656,284.3030090332031 C252.5590057373047,284.0060119628906 252.37600708007812,283.49200439453125 252.79800415039062,282.7250061035156 C253.01800537109375,282.3240051269531 253.37100219726562,282.06201171875 253.84100341796875,281.95001220703125 C255.9029998779297,281.47601318359375 259.76800537109375,284.1239929199219 259.9320068359375,284.2359924316406 C260.0400085449219,284.3110046386719 260.093994140625,284.4410095214844 260.07000732421875,284.5719909667969 C260.0459899902344,284.70098876953125 259.947998046875,284.8030090332031 259.8210144042969,284.8330078125 C259.10101318359375,285.0060119628906 257.60699462890625,285.2309875488281 256.1570129394531,285.2309875488281z M254.4029998779297,282.55499267578125 C254.2570037841797,282.55499267578125 254.11900329589844,282.5679931640625 253.99400329589844,282.5979919433594 C253.7100067138672,282.6650085449219 253.50999450683594,282.81298828125 253.38099670410156,283.0459899902344 C253.0800018310547,283.5929870605469 253.2570037841797,283.8240051269531 253.31500244140625,283.8999938964844 C253.91600036621094,284.68701171875 256.7850036621094,284.70098876953125 258.8789978027344,284.34600830078125 C257.6700134277344,283.60198974609375 255.6790008544922,282.55499267578125 254.4029998779297,282.55499267578125z"></path></g><g opacity="1" transform="matrix(1,0,0,1,0,0)"><path fill="rgb(64,123,255)" fill-opacity="1" d=" M259.7430114746094,284.8420104980469 C259.6889953613281,284.8420104980469 259.635009765625,284.8290100097656 259.5849914550781,284.8030090332031 C258.13299560546875,284.0159912109375 255.322998046875,280.9419860839844 255.6199951171875,279.375 C255.6739959716797,279.09100341796875 255.8820037841797,278.60101318359375 256.677001953125,278.50201416015625 C257.1809997558594,278.4440002441406 257.6679992675781,278.5830078125 258.093994140625,278.92999267578125 C259.7250061035156,280.2619934082031 260.05999755859375,284.31201171875 260.07501220703125,284.4840087890625 C260.0840148925781,284.6050109863281 260.0270080566406,284.7229919433594 259.92401123046875,284.7879943847656 C259.8699951171875,284.82501220703125 259.8059997558594,284.8420104980469 259.7430114746094,284.8420104980469z M256.90899658203125,279.15301513671875 C256.8599853515625,279.15301513671875 256.80999755859375,279.156005859375 256.760009765625,279.1629943847656 C256.3269958496094,279.2149963378906 256.2900085449219,279.41400146484375 256.27301025390625,279.49798583984375 C256.1000061035156,280.42498779296875 257.8869934082031,282.7489929199219 259.33099365234375,283.8420104980469 C259.1669921875,282.65899658203125 258.718994140625,280.29901123046875 257.6719970703125,279.4440002441406 C257.4330139160156,279.24798583984375 257.1830139160156,279.15301513671875 256.90899658203125,279.15301513671875z"></path></g><g opacity="1" transform="matrix(1,0,0,1,0,0)"><path fill="rgb(64,123,255)" fill-opacity="1" d=" M171.86900329589844,285.23199462890625 C170.0679931640625,285.23199462890625 168.33099365234375,284.9840087890625 167.7469940185547,284.17401123046875 C167.54200744628906,283.8900146484375 167.38099670410156,283.4079895019531 167.7729949951172,282.72100830078125 C167.9929962158203,282.3349914550781 168.3489990234375,282.0740051269531 168.82899475097656,281.9429931640625 C171.15199279785156,281.3219909667969 176.0709991455078,284.10400390625 176.2779998779297,284.2229919433594 C176.39700317382812,284.2900085449219 176.46200561523438,284.4259948730469 176.44000244140625,284.5639953613281 C176.41799926757812,284.70001220703125 176.31300354003906,284.8089904785156 176.177001953125,284.8370056152344 C175.281005859375,285.0159912109375 173.54800415039062,285.23199462890625 171.86900329589844,285.23199462890625z M169.64500427246094,282.50799560546875 C169.41200256347656,282.50799560546875 169.19500732421875,282.5329895019531 169.0030059814453,282.5849914550781 C168.69500732421875,282.66900634765625 168.48300170898438,282.82000732421875 168.3520050048828,283.04901123046875 C168.11500549316406,283.4630126953125 168.1999969482422,283.6669921875 168.28599548339844,283.7850036621094 C168.91900634765625,284.6619873046875 172.46400451660156,284.7080078125 175.0970001220703,284.343994140625 C173.79400634765625,283.6759948730469 171.28500366210938,282.50799560546875 169.64500427246094,282.50799560546875z"></path></g><g opacity="1" transform="matrix(1,0,0,1,0,0)"><path fill="rgb(64,123,255)" fill-opacity="1" d=" M176.11199951171875,284.8420104980469 C176.06500244140625,284.8420104980469 176.0189971923828,284.8330078125 175.9759979248047,284.8139953613281 C174.28399658203125,284.05499267578125 170.927001953125,281.02099609375 171.1820068359375,279.4309997558594 C171.24400329589844,279.0580139160156 171.5070037841797,278.5950012207031 172.42100524902344,278.50201416015625 C173.10000610351562,278.43701171875 173.72000122070312,278.62298583984375 174.26499938964844,279.0710144042969 C176.05099487304688,280.5379943847656 176.427001953125,284.3190002441406 176.44200134277344,284.47900390625 C176.4530029296875,284.59698486328125 176.4010009765625,284.7120056152344 176.30599975585938,284.781005859375 C176.2480010986328,284.8219909667969 176.18099975585938,284.8420104980469 176.11199951171875,284.8420104980469z M172.68800354003906,279.15301513671875 C172.6230010986328,279.15301513671875 172.55499267578125,279.1570129394531 172.48800659179688,279.1629943847656 C171.88900756835938,279.2250061035156 171.8520050048828,279.4599914550781 171.83900451660156,279.5379943847656 C171.68600463867188,280.4909973144531 173.96600341796875,282.875 175.69400024414062,283.9129943847656 C175.51499938964844,282.80999755859375 175.01300048828125,280.5469970703125 173.84100341796875,279.5840148925781 C173.48899841308594,279.2950134277344 173.11000061035156,279.15301513671875 172.68800354003906,279.15301513671875z"></path></g><g opacity="1" transform="matrix(1,0,0,1,0,0)"><path fill="rgb(228,137,123)" fill-opacity="1" d=" M191.5469970703125,284.510986328125 C191.5469970703125,284.510986328125 177.50999450683594,284.510986328125 177.50999450683594,284.510986328125 C177.50999450683594,284.510986328125 176.11199951171875,252.00599670410156 176.11199951171875,252.00599670410156 C176.11199951171875,252.00599670410156 190.1490020751953,252.00599670410156 190.1490020751953,252.00599670410156 C190.1490020751953,252.00599670410156 191.5469970703125,284.510986328125 191.5469970703125,284.510986328125z"></path></g><g opacity="1" transform="matrix(1,0,0,1,0,0)"><path fill="rgb(228,137,123)" fill-opacity="1" d=" M275.8240051269531,284.510986328125 C275.8240051269531,284.510986328125 261.7869873046875,284.510986328125 261.7869873046875,284.510986328125 C261.7869873046875,284.510986328125 254.73199462890625,252.00599670410156 254.73199462890625,252.00599670410156 C254.73199462890625,252.00599670410156 268.76800537109375,252.00599670410156 268.76800537109375,252.00599670410156 C268.76800537109375,252.00599670410156 275.8240051269531,284.510986328125 275.8240051269531,284.510986328125z"></path></g><g opacity="1" transform="matrix(1,0,0,1,0,0)"><path fill="rgb(38,50,56)" fill-opacity="1" d=" M260.7900085449219,282.885986328125 C260.7900085449219,282.885986328125 276.5589904785156,282.885986328125 276.5589904785156,282.885986328125 C277.13299560546875,282.885986328125 277.6300048828125,283.2850036621094 277.7539978027344,283.8450012207031 C277.7539978027344,283.8450012207031 280.5270080566406,296.3210144042969 280.5270080566406,296.3210144042969 C280.81500244140625,297.614990234375 279.7969970703125,298.8399963378906 278.47198486328125,298.8169860839844 C272.9670104980469,298.72198486328125 270.2919921875,298.3999938964844 263.35699462890625,298.3999938964844 C259.09100341796875,298.3999938964844 250.30099487304688,298.8429870605469 244.40899658203125,298.8429870605469 C238.64700317382812,298.8429870605469 237.7480010986328,293.01800537109375 240.16000366210938,292.489990234375 C250.97500610351562,290.1239929199219 255.0489959716797,286.8609924316406 258.510986328125,283.7489929199219 C259.135009765625,283.18798828125 259.95098876953125,282.885986328125 260.7900085449219,282.885986328125z"></path></g><g opacity="1" transform="matrix(1,0,0,1,0,0)"><path fill="rgb(38,50,56)" fill-opacity="1" d=" M177.60299682617188,282.885986328125 C177.60299682617188,282.885986328125 192.93099975585938,282.885986328125 192.93099975585938,282.885986328125 C193.5050048828125,282.885986328125 194.0030059814453,283.2850036621094 194.1269989013672,283.8450012207031 C194.1269989013672,283.8450012207031 196.8990020751953,296.3210144042969 196.8990020751953,296.3210144042969 C197.18600463867188,297.614013671875 196.2050018310547,298.84100341796875 194.8800048828125,298.8179931640625 C189.3509979248047,298.7239990234375 181.36000061035156,298.3999938964844 174.41000366210938,298.3999938964844 C166.28399658203125,298.3999938964844 159.26600646972656,298.8429870605469 149.73599243164062,298.8429870605469 C143.9739990234375,298.8429870605469 142.37399291992188,293.01800537109375 144.78599548339844,292.489990234375 C155.76699829101562,290.0880126953125 164.73300170898438,289.83099365234375 174.2220001220703,283.9800109863281 C175.2530059814453,283.343994140625 176.39100646972656,282.885986328125 177.60299682617188,282.885986328125z"></path></g><g opacity="1" transform="matrix(1,0,0,1,0,0)"><g opacity="1" transform="matrix(1,0,0,1,0,0)"><path fill="rgb(64,123,255)" fill-opacity="1" d=" M234.33799743652344,-194.57699584960938 C247.49400329589844,-191.56100463867188 260.7950134277344,-153.0959930419922 260.7950134277344,-153.0959930419922 C260.7950134277344,-153.0959930419922 233.71400451660156,-133.6719970703125 233.71400451660156,-133.6719970703125 C233.71400451660156,-133.6719970703125 226.1490020751953,-151.58700561523438 218.70700073242188,-167.2550048828125 C210.91000366210938,-183.67100524902344 220.88699340820312,-197.66099548339844 234.33799743652344,-194.57699584960938z"></path></g><g opacity="0.4" transform="matrix(1,0,0,1,0,0)"><path fill="rgb(0,0,0)" fill-opacity="1" d=" M234.33799743652344,-194.57699584960938 C247.49400329589844,-191.56100463867188 260.7950134277344,-153.0959930419922 260.7950134277344,-153.0959930419922 C260.7950134277344,-153.0959930419922 233.71400451660156,-133.6719970703125 233.71400451660156,-133.6719970703125 C233.71400451660156,-133.6719970703125 226.1490020751953,-151.58700561523438 218.70700073242188,-167.2550048828125 C210.91000366210938,-183.67100524902344 220.88699340820312,-197.66099548339844 234.33799743652344,-194.57699584960938z"></path></g></g><g opacity="1" transform="matrix(1,0,0,1,0,0)"><g opacity="1" transform="matrix(1,0,0,1,0,0)"><path fill="rgb(64,123,255)" fill-opacity="1" d=" M226.7469940185547,-173.56100463867188 C226.7469940185547,-173.56100463867188 221.3780059814453,-161.54299926757812 221.3780059814453,-161.54299926757812 C226.93800354003906,-149.54400634765625 232.02000427246094,-137.66000366210938 233.3769989013672,-134.48800659179688 C233.18600463867188,-148.6840057373047 230.49200439453125,-166.3000030517578 226.7469940185547,-173.56100463867188z"></path></g><g opacity="0.6" transform="matrix(1,0,0,1,0,0)"><path fill="rgb(0,0,0)" fill-opacity="1" d=" M226.7469940185547,-173.56100463867188 C226.7469940185547,-173.56100463867188 221.3780059814453,-161.54299926757812 221.3780059814453,-161.54299926757812 C226.93800354003906,-149.54400634765625 232.02000427246094,-137.66000366210938 233.3769989013672,-134.48800659179688 C233.18600463867188,-148.6840057373047 230.49200439453125,-166.3000030517578 226.7469940185547,-173.56100463867188z"></path></g></g><g opacity="1" transform="matrix(1,0,0,1,0,0)"><g opacity="1" transform="matrix(1,0,0,1,0,0)"><path fill="rgb(64,123,255)" fill-opacity="1" d=" M155.7010040283203,-193.85400390625 C155.7010040283203,-193.85400390625 140.76100158691406,-176.97900390625 154.8699951171875,-72.53099822998047 C177.49099731445312,-72.53099822998047 218.93899536132812,-72.53099822998047 229.94700622558594,-72.53099822998047 C230.46400451660156,-84.05599975585938 223.2220001220703,-140.27499389648438 234.33799743652344,-194.57699584960938 C234.33799743652344,-194.57699584960938 221.468994140625,-197.16000366210938 209.20599365234375,-197.75100708007812 C199.61300659179688,-198.21299743652344 185.7239990234375,-198.52000427246094 177.29100036621094,-197.75 C166.17300415039062,-196.73500061035156 155.7010040283203,-193.85400390625 155.7010040283203,-193.85400390625z"></path></g><g opacity="0.4" transform="matrix(1,0,0,1,0,0)"><path fill="rgb(0,0,0)" fill-opacity="1" d=" M155.7010040283203,-193.85400390625 C155.7010040283203,-193.85400390625 140.76100158691406,-176.97900390625 154.8699951171875,-72.53099822998047 C177.49099731445312,-72.53099822998047 218.93899536132812,-72.53099822998047 229.94700622558594,-72.53099822998047 C230.46400451660156,-84.05599975585938 223.2220001220703,-140.27499389648438 234.33799743652344,-194.57699584960938 C234.33799743652344,-194.57699584960938 221.468994140625,-197.16000366210938 209.20599365234375,-197.75100708007812 C199.61300659179688,-198.21299743652344 185.7239990234375,-198.52000427246094 177.29100036621094,-197.75 C166.17300415039062,-196.73500061035156 155.7010040283203,-193.85400390625 155.7010040283203,-193.85400390625z"></path></g></g><g opacity="1" transform="matrix(1,0,0,1,0,0)"><g opacity="1" transform="matrix(1,0,0,1,0,0)"><path fill="rgb(64,123,255)" fill-opacity="1" d=" M150.1479949951172,-173.56100463867188 C149.6510009765625,-169.6060028076172 149.2689971923828,-164.9250030517578 149.02099609375,-159.4029998779297 C155.2310028076172,-161.33299255371094 162.94900512695312,-164.42799377441406 169.92300415039062,-169.2239990234375 C169.92300415039062,-169.2239990234375 150.1479949951172,-173.56100463867188 150.1479949951172,-173.56100463867188z"></path></g><g opacity="0.6" transform="matrix(1,0,0,1,0,0)"><path fill="rgb(0,0,0)" fill-opacity="1" d=" M150.1479949951172,-173.56100463867188 C149.6510009765625,-169.6060028076172 149.2689971923828,-164.9250030517578 149.02099609375,-159.4029998779297 C155.2310028076172,-161.33299255371094 162.94900512695312,-164.42799377441406 169.92300415039062,-169.2239990234375 C169.92300415039062,-169.2239990234375 150.1479949951172,-173.56100463867188 150.1479949951172,-173.56100463867188z"></path></g></g><g opacity="1" transform="matrix(1,0,0,1,0,0)"><g opacity="1" transform="matrix(1,0,0,1,0,0)"><path fill="rgb(206,111,100)" fill-opacity="1" d=" M176.11500549316406,252.01499938964844 C176.11500549316406,252.01499938964844 176.83299255371094,268.7699890136719 176.83299255371094,268.7699890136719 C176.83299255371094,268.7699890136719 190.87600708007812,268.7699890136719 190.87600708007812,268.7699890136719 C190.87600708007812,268.7699890136719 190.1580047607422,252.01499938964844 190.1580047607422,252.01499938964844 C190.1580047607422,252.01499938964844 176.11500549316406,252.01499938964844 176.11500549316406,252.01499938964844z"></path></g><g opacity="1" transform="matrix(1,0,0,1,0,0)"><path fill="rgb(206,111,100)" fill-opacity="1" d=" M268.77398681640625,252.01499938964844 C268.77398681640625,252.01499938964844 254.7310028076172,252.01499938964844 254.7310028076172,252.01499938964844 C254.7310028076172,252.01499938964844 258.375,268.7699890136719 258.375,268.7699890136719 C258.375,268.7699890136719 272.4169921875,268.7699890136719 272.4169921875,268.7699890136719 C272.4169921875,268.7699890136719 268.77398681640625,252.01499938964844 268.77398681640625,252.01499938964844z"></path></g></g><g opacity="1" transform="matrix(1,0,0,1,0,0)"><path fill="rgb(38,50,56)" fill-opacity="1" d=" M184.5659942626953,-263.2439880371094 C171.9739990234375,-269.06298828125 167.99400329589844,-294.4590148925781 204.2169952392578,-288.1700134277344 C204.2169952392578,-288.1700134277344 198.75799560546875,-282.1189880371094 209.8470001220703,-278.2980041503906 C220.93499755859375,-274.47698974609375 211.6529998779297,-250.7259979248047 184.5659942626953,-263.2439880371094z"></path></g><g opacity="1" transform="matrix(1,0,0,1,0,0)"><path fill="rgb(228,137,123)" fill-opacity="1" d=" M211.9219970703125,-244.1219940185547 C208.3159942626953,-230.66600036621094 206.88900756835938,-222.60699462890625 198.58599853515625,-217.01199340820312 C186.0959930419922,-208.5959930419922 170.5449981689453,-218.2550048828125 170.05799865722656,-232.51699829101562 C169.6199951171875,-245.35400390625 175.59100341796875,-265.2019958496094 190.031005859375,-267.91400146484375 C204.2570037841797,-270.58599853515625 215.5279998779297,-257.5780029296875 211.9219970703125,-244.1219940185547z"></path></g><g opacity="1" transform="matrix(1,0,0,1,0,0)"><path fill="rgb(38,50,56)" fill-opacity="1" d=" M203.7239990234375,-281.3320007324219 C212.29600524902344,-276.5379943847656 223.91600036621094,-273.6789855957031 222.7480010986328,-266.88299560546875 C221.32000732421875,-258.57501220703125 229.7740020751953,-263.77301025390625 227.80499267578125,-251.39500427246094 C226.5189971923828,-243.31399536132812 211.61099243164062,-218.82200622558594 201.11700439453125,-220.01800537109375 C185.34300231933594,-221.8159942626953 187.3419952392578,-245.91099548339844 187.2899932861328,-258.572998046875 C187.25900268554688,-266.0369873046875 186.91099548339844,-290.7349853515625 203.7239990234375,-281.3320007324219z"></path></g><g opacity="1" transform="matrix(1,0,0,1,0,0)"><path fill="rgb(38,50,56)" fill-opacity="1" d=" M185.39999389648438,-270.60198974609375 C181.57899475097656,-269.70001220703125 176.51400756835938,-247.6739959716797 191.3159942626953,-245.65699768066406 C208.35299682617188,-243.3350067138672 185.39999389648438,-270.60198974609375 185.39999389648438,-270.60198974609375z"></path></g><g opacity="1" transform="matrix(1,0,0,1,0,0)"><path fill="rgb(38,50,56)" fill-opacity="1" d=" M185.78700256347656,-262.78399658203125 C181.10400390625,-262.37200927734375 170.54200744628906,-268.0069885253906 171.802001953125,-276.4840087890625 C171.802001953125,-276.4840087890625 178.53399658203125,-266.56500244140625 185.78700256347656,-262.78399658203125z"></path></g><g opacity="1" transform="matrix(1,0,0,1,0,0)"><path fill="rgb(228,137,123)" fill-opacity="1" d=" M192.72900390625,-243.8979949951172 C191.26300048828125,-240.5570068359375 188.49000549316406,-237.927001953125 185.80499267578125,-236.5290069580078 C181.76699829101562,-234.42599487304688 179.49899291992188,-237.50100708007812 180.41200256347656,-241.54100036621094 C181.23399353027344,-245.177001953125 184.3260040283203,-250.6529998779297 188.47999572753906,-251.1009979248047 C192.57200622558594,-251.54200744628906 194.40499877929688,-247.718994140625 192.72900390625,-243.8979949951172z"></path></g><g opacity="1" transform="matrix(1,0,0,1,0,0)"><path fill="rgb(38,50,56)" fill-opacity="1" d=" M213.7469940185547,-259.4490051269531 C216.58299255371094,-260.8919982910156 223.03900146484375,-264.1619873046875 224.8000030517578,-273.4429931640625 C224.8000030517578,-273.4429931640625 231.10699462890625,-255.8350067138672 213.7469940185547,-259.4490051269531z"></path></g><g opacity="1" transform="matrix(1,0,0,1,0,0)"><path fill="rgb(38,50,56)" fill-opacity="1" d=" M229.69500732421875,-259.6340026855469 C228.27999877929688,-260.4630126953125 225.0659942626953,-262.3529968261719 220.55099487304688,-260.5350036621094 C220.55099487304688,-260.5350036621094 226.43299865722656,-268.1679992675781 229.69500732421875,-259.6340026855469z"></path></g><g opacity="1" transform="matrix(1,0,0,1,0,0)"><g opacity="1" transform="matrix(1,0,0,1,0,0)"><path fill="rgb(64,123,255)" fill-opacity="1" d=" M181.5019989013672,-72.53099822998047 C181.5019989013672,-72.53099822998047 197.4320068359375,34.737998962402344 206.177001953125,74.92500305175781 C215.7530059814453,118.93299865722656 251.83200073242188,265.5249938964844 251.83200073242188,265.5249938964844 C251.83200073242188,265.5249938964844 277.5409851074219,265.5249938964844 277.5409851074219,265.5249938964844 C277.5409851074219,265.5249938964844 253.75,122.48699951171875 248.28599548339844,78.91500091552734 C242.35499572753906,31.625 229.94700622558594,-72.53099822998047 229.94700622558594,-72.53099822998047 C229.94700622558594,-72.53099822998047 181.5019989013672,-72.53099822998047 181.5019989013672,-72.53099822998047z"></path></g><g opacity="0.5" transform="matrix(1,0,0,1,0,0)"><path fill="rgb(255,255,255)" fill-opacity="1" d=" M181.5019989013672,-72.53099822998047 C181.5019989013672,-72.53099822998047 197.4320068359375,34.737998962402344 206.177001953125,74.92500305175781 C215.7530059814453,118.93299865722656 251.83200073242188,265.5249938964844 251.83200073242188,265.5249938964844 C251.83200073242188,265.5249938964844 277.5409851074219,265.5249938964844 277.5409851074219,265.5249938964844 C277.5409851074219,265.5249938964844 253.75,122.48699951171875 248.28599548339844,78.91500091552734 C242.35499572753906,31.625 229.94700622558594,-72.53099822998047 229.94700622558594,-72.53099822998047 C229.94700622558594,-72.53099822998047 181.5019989013672,-72.53099822998047 181.5019989013672,-72.53099822998047z"></path></g></g><g opacity="1" transform="matrix(1,0,0,1,0,0)"><g opacity="1" transform="matrix(1,0,0,1,0,0)"><path fill="rgb(64,123,255)" fill-opacity="1" d=" M247.7270050048828,256.0539855957031 C247.61700439453125,256.0539855957031 250.38099670410156,265.92498779296875 250.38099670410156,265.92498779296875 C250.38099670410156,265.92498779296875 279.3059997558594,265.92498779296875 279.3059997558594,265.92498779296875 C279.3059997558594,265.92498779296875 278.7749938964844,257.114990234375 278.7749938964844,257.114990234375 C278.7749938964844,257.114990234375 247.7270050048828,256.0539855957031 247.7270050048828,256.0539855957031z"></path></g><g opacity="0.1" transform="matrix(1,0,0,1,0,0)"><path fill="rgb(0,0,0)" fill-opacity="1" d=" M247.7270050048828,256.0539855957031 C247.61700439453125,256.0539855957031 250.38099670410156,265.92498779296875 250.38099670410156,265.92498779296875 C250.38099670410156,265.92498779296875 279.3059997558594,265.92498779296875 279.3059997558594,265.92498779296875 C279.3059997558594,265.92498779296875 278.7749938964844,257.114990234375 278.7749938964844,257.114990234375 C278.7749938964844,257.114990234375 247.7270050048828,256.0539855957031 247.7270050048828,256.0539855957031z"></path></g></g><g opacity="1" transform="matrix(1,0,0,1,0,0)"><g opacity="1" transform="matrix(1,0,0,1,0,0)"><path fill="rgb(64,123,255)" fill-opacity="1" d=" M191.57000732421875,-34.31100082397461 C209.98899841308594,-30.700000762939453 208.0399932861328,37.98899841308594 205.822998046875,73.31700134277344 C200.51199340820312,48.34400177001953 192.73599243164062,0.29100000858306885 187.4239959716797,-33.814998626708984 C188.64599609375,-34.42599868774414 190.02200317382812,-34.617000579833984 191.57000732421875,-34.31100082397461z"></path></g><g opacity="0.4" transform="matrix(1,0,0,1,0,0)"><path fill="rgb(255,255,255)" fill-opacity="1" d=" M191.57000732421875,-34.31100082397461 C209.98899841308594,-30.700000762939453 208.0399932861328,37.98899841308594 205.822998046875,73.31700134277344 C200.51199340820312,48.34400177001953 192.73599243164062,0.29100000858306885 187.4239959716797,-33.814998626708984 C188.64599609375,-34.42599868774414 190.02200317382812,-34.617000579833984 191.57000732421875,-34.31100082397461z"></path></g></g><g opacity="1" transform="matrix(1,0,0,1,0,0)"><g opacity="1" transform="matrix(1,0,0,1,0,0)"><path fill="rgb(64,123,255)" fill-opacity="1" d=" M154.8699951171875,-72.53099822998047 C154.8699951171875,-72.53099822998047 152.93699645996094,32.41600036621094 154.46400451660156,75.22100067138672 C156.052001953125,119.74400329589844 171.60299682617188,265.5249938964844 171.60299682617188,265.5249938964844 C171.60299682617188,265.5249938964844 195.38099670410156,265.5249938964844 195.38099670410156,265.5249938964844 C195.38099670410156,265.5249938964844 196.25399780273438,122.34500122070312 197.31199645996094,78.61900329589844 C198.46499633789062,30.950000762939453 204.2209930419922,-72.53099822998047 204.2209930419922,-72.53099822998047 C204.2209930419922,-72.53099822998047 154.8699951171875,-72.53099822998047 154.8699951171875,-72.53099822998047z"></path></g><g opacity="0.5" transform="matrix(1,0,0,1,0,0)"><path fill="rgb(255,255,255)" fill-opacity="1" d=" M154.8699951171875,-72.53099822998047 C154.8699951171875,-72.53099822998047 152.93699645996094,32.41600036621094 154.46400451660156,75.22100067138672 C156.052001953125,119.74400329589844 171.60299682617188,265.5249938964844 171.60299682617188,265.5249938964844 C171.60299682617188,265.5249938964844 195.38099670410156,265.5249938964844 195.38099670410156,265.5249938964844 C195.38099670410156,265.5249938964844 196.25399780273438,122.34500122070312 197.31199645996094,78.61900329589844 C198.46499633789062,30.950000762939453 204.2209930419922,-72.53099822998047 204.2209930419922,-72.53099822998047 C204.2209930419922,-72.53099822998047 154.8699951171875,-72.53099822998047 154.8699951171875,-72.53099822998047z"></path></g></g><g opacity="1" transform="matrix(1,0,0,1,0,0)"><g opacity="1" transform="matrix(1,0,0,1,0,0)"><path fill="rgb(64,123,255)" fill-opacity="1" d=" M176.55599975585938,248.44500732421875 C176.43499755859375,248.44500732421875 176.33200073242188,248.35299682617188 176.31900024414062,248.22999572753906 C172.1280059814453,207.8820037841797 162.2449951171875,110.25499725341797 160.9949951171875,75.2300033569336 C159.7209930419922,39.47999954223633 160.8769989013672,-40.72999954223633 161.26300048828125,-64.46099853515625 C161.26499938964844,-64.59200286865234 161.3719940185547,-64.69599914550781 161.5019989013672,-64.69599914550781 C161.50399780273438,-64.69599914550781 161.50399780273438,-64.69599914550781 161.50599670410156,-64.69599914550781 C161.63800048828125,-64.69400024414062 161.7429962158203,-64.58499908447266 161.74099731445312,-64.4530029296875 C161.35499572753906,-40.724998474121094 160.197998046875,39.4739990234375 161.4720001220703,75.21099853515625 C162.7220001220703,110.2229995727539 172.6020050048828,207.83700561523438 176.79299926757812,248.18099975585938 C176.80799865722656,248.31100463867188 176.71299743652344,248.42999267578125 176.5800018310547,248.4429931640625 C176.572998046875,248.44500732421875 176.56399536132812,248.44500732421875 176.55599975585938,248.44500732421875z"></path></g><g opacity="0.4" transform="matrix(1,0,0,1,0,0)"><path fill="rgb(255,255,255)" fill-opacity="1" d=" M176.55599975585938,248.44500732421875 C176.43499755859375,248.44500732421875 176.33200073242188,248.35299682617188 176.31900024414062,248.22999572753906 C172.1280059814453,207.8820037841797 162.2449951171875,110.25499725341797 160.9949951171875,75.2300033569336 C159.7209930419922,39.47999954223633 160.8769989013672,-40.72999954223633 161.26300048828125,-64.46099853515625 C161.26499938964844,-64.59200286865234 161.3719940185547,-64.69599914550781 161.5019989013672,-64.69599914550781 C161.50399780273438,-64.69599914550781 161.50399780273438,-64.69599914550781 161.50599670410156,-64.69599914550781 C161.63800048828125,-64.69400024414062 161.7429962158203,-64.58499908447266 161.74099731445312,-64.4530029296875 C161.35499572753906,-40.724998474121094 160.197998046875,39.4739990234375 161.4720001220703,75.21099853515625 C162.7220001220703,110.2229995727539 172.6020050048828,207.83700561523438 176.79299926757812,248.18099975585938 C176.80799865722656,248.31100463867188 176.71299743652344,248.42999267578125 176.5800018310547,248.4429931640625 C176.572998046875,248.44500732421875 176.56399536132812,248.44500732421875 176.55599975585938,248.44500732421875z"></path></g></g><g opacity="1" transform="matrix(1,0,0,1,0,0)"><g opacity="1" transform="matrix(1,0,0,1,0,0)"><path fill="rgb(64,123,255)" fill-opacity="1" d=" M167.02699279785156,256.0539855957031 C166.91700744628906,256.0539855957031 168.36900329589844,265.92498779296875 168.36900329589844,265.92498779296875 C168.36900329589844,265.92498779296875 197.29400634765625,265.92498779296875 197.29400634765625,265.92498779296875 C197.29400634765625,265.92498779296875 198.0760040283203,257.114990234375 198.0760040283203,257.114990234375 C198.0760040283203,257.114990234375 167.02699279785156,256.0539855957031 167.02699279785156,256.0539855957031z"></path></g><g opacity="0.1" transform="matrix(1,0,0,1,0,0)"><path fill="rgb(0,0,0)" fill-opacity="1" d=" M167.02699279785156,256.0539855957031 C166.91700744628906,256.0539855957031 168.36900329589844,265.92498779296875 168.36900329589844,265.92498779296875 C168.36900329589844,265.92498779296875 197.29400634765625,265.92498779296875 197.29400634765625,265.92498779296875 C197.29400634765625,265.92498779296875 198.0760040283203,257.114990234375 198.0760040283203,257.114990234375 C198.0760040283203,257.114990234375 167.02699279785156,256.0539855957031 167.02699279785156,256.0539855957031z"></path></g></g></g><g transform="matrix(0.9781476259231567,-0.2079116851091385,0.2079116851091385,0.9781476259231567,443.427001953125,431.63482666015625)" opacity="1" style="display: block;"><g opacity="1" transform="matrix(1,0,0,1,0,0)"><path fill="rgb(228,137,123)" fill-opacity="1" d=" M170.82400512695312,-173.09500122070312 C158.9219970703125,-174.02499389648438 147.48300170898438,-175.5659942626953 135.84500122070312,-177.74600219726562 C130.05299377441406,-178.85899353027344 124.2509994506836,-180.1009979248047 118.45099639892578,-181.66299438476562 C112.64399719238281,-183.22000122070312 106.82499694824219,-184.98500061035156 100.94400024414062,-187.44000244140625 C99.4739990234375,-188.0449981689453 97.98999786376953,-188.7220001220703 96.50700378417969,-189.427001953125 C94.64800262451172,-190.3459930419922 93.10199737548828,-191.302001953125 91.74099731445312,-192.20700073242188 C88.9800033569336,-194.02999877929688 86.61900329589844,-195.90899658203125 84.26699829101562,-197.78399658203125 C79.59300231933594,-201.5260009765625 75.24299621582031,-205.41799926757812 70.9520034790039,-209.3489990234375 C62.40800094604492,-217.2519989013672 54.29999923706055,-225.43099975585938 46.49300003051758,-234.03700256347656 C46.49300003051758,-234.03700256347656 53.52199935913086,-241.88999938964844 53.52199935913086,-241.88999938964844 C53.52199935913086,-241.88999938964844 81.24500274658203,-221.9669952392578 81.24500274658203,-221.9669952392578 C85.82099914550781,-218.66700744628906 90.44000244140625,-215.44500732421875 94.98300170898438,-212.40499877929688 C97.24700164794922,-210.90199279785156 99.55999755859375,-209.4739990234375 101.66600036621094,-208.28599548339844 C102.73400115966797,-207.68099975585938 103.68399810791016,-207.22799682617188 104.41799926757812,-206.93800354003906 C105.55400085449219,-206.4929962158203 106.7040023803711,-206.0540008544922 107.91200256347656,-205.64999389648438 C117.61599731445312,-202.41299438476562 128.58900451660156,-200.33399963378906 139.48699951171875,-198.5780029296875 C150.3979949951172,-196.8509979248047 161.67300415039062,-195.42999267578125 172.56199645996094,-194.3000030517578 C172.56199645996094,-194.3000030517578 170.82400512695312,-173.09500122070312 170.82400512695312,-173.09500122070312z"></path></g><g opacity="1" transform="matrix(1,0,0,1,0,0)"><g opacity="1" transform="matrix(1,0,0,1,0,0)"><path fill="rgb(64,123,255)" fill-opacity="1" d=" M182.26300048828125,-171.51400756835938 C172.218994140625,-162.61399841308594 133.84800720214844,-163.5030059814453 133.84800720214844,-163.5030059814453 C133.84800720214844,-163.5030059814453 132.58299255371094,-200.5970001220703 132.58299255371094,-200.5970001220703 C132.58299255371094,-200.5970001220703 154.3350067138672,-197.40899658203125 171.6929931640625,-197.76100158691406 C193.13499450683594,-198.1959991455078 193.28599548339844,-181.281005859375 182.26300048828125,-171.51400756835938z"></path></g><g opacity="0.4" transform="matrix(1,0,0,1,0,0)"><path fill="rgb(0,0,0)" fill-opacity="1" d=" M182.26300048828125,-171.51400756835938 C172.218994140625,-162.61399841308594 133.84800720214844,-163.5030059814453 133.84800720214844,-163.5030059814453 C133.84800720214844,-163.5030059814453 132.58299255371094,-200.5970001220703 132.58299255371094,-200.5970001220703 C132.58299255371094,-200.5970001220703 154.3350067138672,-197.40899658203125 171.6929931640625,-197.76100158691406 C193.13499450683594,-198.1959991455078 193.28599548339844,-181.281005859375 182.26300048828125,-171.51400756835938z"></path></g></g><g opacity="1" transform="matrix(1,0,0,1,0,0)"><path fill="rgb(228,137,123)" fill-opacity="1" d=" M53.867000579833984,-241.69900512695312 C53.867000579833984,-241.69900512695312 44.231998443603516,-252.94700622558594 44.231998443603516,-252.94700622558594 C44.231998443603516,-252.94700622558594 33.946998596191406,-241.55499267578125 33.946998596191406,-241.55499267578125 C33.946998596191406,-241.55499267578125 40.279998779296875,-230.90199279785156 50.362998962402344,-232.58299255371094 C50.362998962402344,-232.58299255371094 53.867000579833984,-241.69900512695312 53.867000579833984,-241.69900512695312z"></path></g><g opacity="1" transform="matrix(1,0,0,1,0,0)"><path fill="rgb(228,137,123)" fill-opacity="1" d=" M30.628999710083008,-266.0669860839844 C30.628999710083008,-266.0669860839844 26.922000885009766,-251.38900756835938 26.922000885009766,-251.38900756835938 C26.922000885009766,-251.38900756835938 33.946998596191406,-241.55499267578125 33.946998596191406,-241.55499267578125 C33.946998596191406,-241.55499267578125 44.231998443603516,-252.94700622558594 44.231998443603516,-252.94700622558594 C44.231998443603516,-252.94700622558594 30.628999710083008,-266.0669860839844 30.628999710083008,-266.0669860839844z"></path></g></g><g transform="matrix(1,0,0,1,400,395.1579895019531)" opacity="1" style="display: block;"><g opacity="1" transform="matrix(1,0,0,1,0,0)"><g opacity="1" transform="matrix(1,0,0,1,0,0)"><path fill="rgb(64,123,255)" fill-opacity="1" d=" M-377.77801513671875,-210.50999450683594 C-377.77801513671875,-210.50999450683594 57.79999923706055,-147.81199645996094 57.79999923706055,-147.81199645996094 C57.79999923706055,-147.81199645996094 116.25599670410156,-88.81999969482422 116.25599670410156,-88.81999969482422 C116.25599670410156,-88.81999969482422 -377.77801513671875,-210.50999450683594 -377.77801513671875,-210.50999450683594z"></path></g><g opacity="0.6" transform="matrix(1,0,0,1,0,0)"><path fill="rgb(255,255,255)" fill-opacity="1" d=" M-377.77801513671875,-210.50999450683594 C-377.77801513671875,-210.50999450683594 57.79999923706055,-147.81199645996094 57.79999923706055,-147.81199645996094 C57.79999923706055,-147.81199645996094 116.25599670410156,-88.81999969482422 116.25599670410156,-88.81999969482422 C116.25599670410156,-88.81999969482422 -377.77801513671875,-210.50999450683594 -377.77801513671875,-210.50999450683594z"></path></g></g><g opacity="1" transform="matrix(1,0,0,1,0,0)"><g opacity="1" transform="matrix(1,0,0,1,0,0)"><path fill="rgb(64,123,255)" fill-opacity="1" d=" M-377.77801513671875,-210.50999450683594 C-377.77801513671875,-210.50999450683594 57.79999923706055,-147.81199645996094 57.79999923706055,-147.81199645996094 C57.79999923706055,-147.81199645996094 37.58599853515625,-62.50899887084961 37.58599853515625,-62.50899887084961 C37.58599853515625,-62.50899887084961 -377.77801513671875,-210.50999450683594 -377.77801513671875,-210.50999450683594z"></path></g><g opacity="0.2" transform="matrix(1,0,0,1,0,0)"><path fill="rgb(0,0,0)" fill-opacity="1" d=" M-377.77801513671875,-210.50999450683594 C-377.77801513671875,-210.50999450683594 57.79999923706055,-147.81199645996094 57.79999923706055,-147.81199645996094 C57.79999923706055,-147.81199645996094 37.58599853515625,-62.50899887084961 37.58599853515625,-62.50899887084961 C37.58599853515625,-62.50899887084961 -377.77801513671875,-210.50999450683594 -377.77801513671875,-210.50999450683594z"></path></g></g><g opacity="1" transform="matrix(1,0,0,1,0,0)"><path fill="rgb(64,123,255)" fill-opacity="1" d=" M-207.71800231933594,-103.13600158691406 C-207.71800231933594,-103.13600158691406 -247.69200134277344,-126.5530014038086 -247.69200134277344,-126.5530014038086 C-247.69200134277344,-126.5530014038086 -246.72500610351562,-128.2030029296875 -246.72500610351562,-128.2030029296875 C-246.72500610351562,-128.2030029296875 -206.75100708007812,-104.78600311279297 -206.75100708007812,-104.78600311279297 C-206.75100708007812,-104.78600311279297 -207.71800231933594,-103.13600158691406 -207.71800231933594,-103.13600158691406z"></path></g><g opacity="1" transform="matrix(1,0,0,1,0,0)"><path fill="rgb(64,123,255)" fill-opacity="1" d=" M-175.677001953125,-84.36499786376953 C-175.677001953125,-84.36499786376953 -190.0570068359375,-92.79000091552734 -190.0570068359375,-92.79000091552734 C-190.0570068359375,-92.79000091552734 -189.09100341796875,-94.43900299072266 -189.09100341796875,-94.43900299072266 C-189.09100341796875,-94.43900299072266 -174.7100067138672,-86.01499938964844 -174.7100067138672,-86.01499938964844 C-174.7100067138672,-86.01499938964844 -175.677001953125,-84.36499786376953 -175.677001953125,-84.36499786376953z"></path></g></g><g transform="matrix(0.9781476259231567,-0.2079116851091385,0.2079116851091385,0.9781476259231567,443.427001953125,431.63482666015625)" opacity="1" style="display: block;"><g opacity="1" transform="matrix(1,0,0,1,0,0)"><g opacity="1" transform="matrix(1,0,0,1,0,0)"><path fill="rgb(64,123,255)" fill-opacity="1" d=" M46.457000732421875,-308.8810119628906 C46.457000732421875,-308.8810119628906 28.04800033569336,-189.10499572753906 28.04800033569336,-189.10499572753906 C27.051000595092773,-182.6179962158203 20.929000854492188,-178.12600708007812 14.442000389099121,-179.1230010986328 C14.442000389099121,-179.1230010986328 -213.57200622558594,-214.16799926757812 -213.57200622558594,-214.16799926757812 C-220.0590057373047,-215.1649932861328 -224.55099487304688,-221.28700256347656 -223.5540008544922,-227.7740020751953 C-223.5540008544922,-227.7740020751953 -205.14500427246094,-347.54998779296875 -205.14500427246094,-347.54998779296875 C-204.62399291992188,-350.9410095214844 -202.6959991455078,-353.79400634765625 -200.0540008544922,-355.60101318359375 C-197.63999938964844,-357.23199462890625 -194.63400268554688,-358.00799560546875 -191.53799438476562,-357.5320129394531 C-191.53799438476562,-357.5320129394531 36.47600173950195,-322.48699951171875 36.47600173950195,-322.48699951171875 C39.571998596191406,-322.010986328125 42.207000732421875,-320.3699951171875 44.01900100708008,-318.0889892578125 C45.99599838256836,-315.5719909667969 46.97800064086914,-312.2720031738281 46.457000732421875,-308.8810119628906z"></path></g><g opacity="0.4" transform="matrix(1,0,0,1,0,0)"><path fill="rgb(0,0,0)" fill-opacity="1" d=" M46.457000732421875,-308.8810119628906 C46.457000732421875,-308.8810119628906 28.04800033569336,-189.10499572753906 28.04800033569336,-189.10499572753906 C27.051000595092773,-182.6179962158203 20.929000854492188,-178.12600708007812 14.442000389099121,-179.1230010986328 C14.442000389099121,-179.1230010986328 -213.57200622558594,-214.16799926757812 -213.57200622558594,-214.16799926757812 C-220.0590057373047,-215.1649932861328 -224.55099487304688,-221.28700256347656 -223.5540008544922,-227.7740020751953 C-223.5540008544922,-227.7740020751953 -205.14500427246094,-347.54998779296875 -205.14500427246094,-347.54998779296875 C-204.62399291992188,-350.9410095214844 -202.6959991455078,-353.79400634765625 -200.0540008544922,-355.60101318359375 C-197.63999938964844,-357.23199462890625 -194.63400268554688,-358.00799560546875 -191.53799438476562,-357.5320129394531 C-191.53799438476562,-357.5320129394531 36.47600173950195,-322.48699951171875 36.47600173950195,-322.48699951171875 C39.571998596191406,-322.010986328125 42.207000732421875,-320.3699951171875 44.01900100708008,-318.0889892578125 C45.99599838256836,-315.5719909667969 46.97800064086914,-312.2720031738281 46.457000732421875,-308.8810119628906z"></path></g></g><g opacity="1" transform="matrix(1,0,0,1,0,0)"><path fill="rgb(64,123,255)" fill-opacity="1" d=" M44.01900100708008,-318.0889892578125 C44.01900100708008,-318.0889892578125 -59.30099868774414,-258.32501220703125 -59.30099868774414,-258.32501220703125 C-79.03299713134766,-246.91099548339844 -104.05599975585938,-250.75599670410156 -119.44999694824219,-267.5690002441406 C-119.44999694824219,-267.5690002441406 -200.0540008544922,-355.60101318359375 -200.0540008544922,-355.60101318359375 C-197.63999938964844,-357.23199462890625 -194.63400268554688,-358.00799560546875 -191.53799438476562,-357.5320129394531 C-191.53799438476562,-357.5320129394531 36.47600173950195,-322.48699951171875 36.47600173950195,-322.48699951171875 C39.571998596191406,-322.010986328125 42.207000732421875,-320.3699951171875 44.01900100708008,-318.0889892578125z"></path></g></g><g transform="matrix(1,0,0,1,400,395.1579895019531)" opacity="1" style="display: block;"><g opacity="1" transform="matrix(1,0,0,1,0,0)"><g opacity="1" transform="matrix(1,0,0,1,0,0)"><path fill="rgb(64,123,255)" fill-opacity="1" d=" M-377.77801513671875,-210.50999450683594 C-377.77801513671875,-210.50999450683594 -18.509000778198242,-125.13099670410156 -18.509000778198242,-125.13099670410156 C-18.509000778198242,-125.13099670410156 37.58599853515625,-62.50899887084961 37.58599853515625,-62.50899887084961 C37.58599853515625,-62.50899887084961 -377.77801513671875,-210.50999450683594 -377.77801513671875,-210.50999450683594z"></path></g><g opacity="0.6" transform="matrix(1,0,0,1,0,0)"><path fill="rgb(255,255,255)" fill-opacity="1" d=" M-377.77801513671875,-210.50999450683594 C-377.77801513671875,-210.50999450683594 -18.509000778198242,-125.13099670410156 -18.509000778198242,-125.13099670410156 C-18.509000778198242,-125.13099670410156 37.58599853515625,-62.50899887084961 37.58599853515625,-62.50899887084961 C37.58599853515625,-62.50899887084961 -377.77801513671875,-210.50999450683594 -377.77801513671875,-210.50999450683594z"></path></g></g><g opacity="1" transform="matrix(1,0,0,1,0,0)"><path fill="rgb(64,123,255)" fill-opacity="1" d=" M-377.77801513671875,-210.50999450683594 C-377.77801513671875,-210.50999450683594 -18.509000778198242,-125.12999725341797 -18.509000778198242,-125.12999725341797 C-18.509000778198242,-125.12999725341797 -88.34300231933594,-40.95500183105469 -88.34300231933594,-40.95500183105469 C-88.34300231933594,-40.95500183105469 -377.77801513671875,-210.50999450683594 -377.77801513671875,-210.50999450683594z"></path></g></g><g transform="matrix(1,0,0,1,400,400)" opacity="1" style="display: none;"><g opacity="1" transform="matrix(1,0,0,1,0,0)"><path stroke-linecap="butt" stroke-linejoin="miter" fill-opacity="0" stroke-miterlimit="4" stroke="rgb(45,163,212)" stroke-opacity="1" stroke-width="5" d="M0 0"></path></g></g><g style="display: none;" transform="matrix(1,0,0,1,400,400)" opacity="1"><g opacity="1" transform="matrix(1,0,0,1,0,0)"><path stroke-linecap="butt" stroke-linejoin="miter" fill-opacity="0" stroke-miterlimit="4" stroke="rgb(45,163,212)" stroke-opacity="1" stroke-width="5" d=" M5.730999946594238,7.948999881744385 C21.902000427246094,14.270999908447266 34,19 34,19"></path></g></g><g style="display: none;" transform="matrix(1,0,0,1,400,400)" opacity="1"><g opacity="1" transform="matrix(1,0,0,1,0,0)"><path stroke-linecap="butt" stroke-linejoin="miter" fill-opacity="0" stroke-miterlimit="4" stroke="rgb(45,163,212)" stroke-opacity="1" stroke-width="5" d=" M23.441999435424805,14.873000144958496 C29.965999603271484,17.42300033569336 34,19 34,19"></path></g></g><g style="display: none;" transform="matrix(1,0,0,1,400,400)" opacity="1"><g opacity="1" transform="matrix(1,0,0,1,0,0)"><path stroke-linecap="butt" stroke-linejoin="miter" fill-opacity="0" stroke-miterlimit="4" stroke="rgb(45,163,212)" stroke-opacity="1" stroke-width="5" d=" M-50.5359992980957,-14.045999526977539 C-18.045000076293945,-1.3450000286102295 34,19 34,19"></path></g></g><g style="display: block;" transform="matrix(1,0,0,1,400,400)" opacity="1"><g opacity="1" transform="matrix(1,0,0,1,0,0)"><path stroke-linecap="butt" stroke-linejoin="miter" fill-opacity="0" stroke-miterlimit="4" stroke="rgb(45,163,212)" stroke-opacity="1" stroke-width="5" d=" M-74.84500122070312,-23.548999786376953 C-63.11600112915039,-18.96299934387207 34,19 34,19"></path></g></g><g style="display: none;" transform="matrix(1,0,0,1,400,400)" opacity="1"><g opacity="1" transform="matrix(1,0,0,1,0,0)"><path stroke-linecap="butt" stroke-linejoin="miter" fill-opacity="0" stroke-miterlimit="4" stroke="rgb(45,163,212)" stroke-opacity="1" stroke-width="5" d="M0 0"></path></g></g><g style="display: none;" transform="matrix(1,0,0,1,400,400)" opacity="1"><g opacity="1" transform="matrix(1,0,0,1,0,0)"><path stroke-linecap="butt" stroke-linejoin="miter" fill-opacity="0" stroke-miterlimit="4" stroke="rgb(45,163,212)" stroke-opacity="1" stroke-width="5" d=" M14.147000312805176,11.23900032043457 C25.92300033569336,15.843000411987305 34,19 34,19"></path></g></g><g style="display: none;" transform="matrix(1,0,0,1,400,400)" opacity="1"><g opacity="1" transform="matrix(1,0,0,1,0,0)"><path stroke-linecap="butt" stroke-linejoin="miter" fill-opacity="0" stroke-miterlimit="4" stroke="rgb(45,163,212)" stroke-opacity="1" stroke-width="5" d=" M-76,-24 C-76,-24 -20.100000381469727,-2.1480000019073486 12.00100040435791,10.399999618530273"></path></g></g><g transform="matrix(1,0,0,1,490,370)" opacity="1" style="display: none;"><g opacity="1" transform="matrix(1,0,0,1,0,0)"><path stroke-linecap="butt" stroke-linejoin="miter" fill-opacity="0" stroke-miterlimit="4" stroke="rgb(45,163,212)" stroke-opacity="1" stroke-width="5" d="M0 0"></path></g></g><g style="display: none;" transform="matrix(1,0,0,1,490,370)" opacity="1"><g opacity="1" transform="matrix(1,0,0,1,0,0)"><path stroke-linecap="butt" stroke-linejoin="miter" fill-opacity="0" stroke-miterlimit="4" stroke="rgb(45,163,212)" stroke-opacity="1" stroke-width="5" d=" M5.730999946594238,7.948999881744385 C21.902000427246094,14.270999908447266 34,19 34,19"></path></g></g><g style="display: none;" transform="matrix(1,0,0,1,490,370)" opacity="1"><g opacity="1" transform="matrix(1,0,0,1,0,0)"><path stroke-linecap="butt" stroke-linejoin="miter" fill-opacity="0" stroke-miterlimit="4" stroke="rgb(45,163,212)" stroke-opacity="1" stroke-width="5" d=" M23.441999435424805,14.873000144958496 C29.965999603271484,17.42300033569336 34,19 34,19"></path></g></g><g style="display: none;" transform="matrix(1,0,0,1,490,370)" opacity="1"><g opacity="1" transform="matrix(1,0,0,1,0,0)"><path stroke-linecap="butt" stroke-linejoin="miter" fill-opacity="0" stroke-miterlimit="4" stroke="rgb(45,163,212)" stroke-opacity="1" stroke-width="5" d=" M-50.5359992980957,-14.045999526977539 C-18.045000076293945,-1.3450000286102295 34,19 34,19"></path></g></g><g style="display: block;" transform="matrix(1,0,0,1,490,370)" opacity="1"><g opacity="1" transform="matrix(1,0,0,1,0,0)"><path stroke-linecap="butt" stroke-linejoin="miter" fill-opacity="0" stroke-miterlimit="4" stroke="rgb(45,163,212)" stroke-opacity="1" stroke-width="5" d=" M-74.84500122070312,-23.548999786376953 C-63.11600112915039,-18.96299934387207 34,19 34,19"></path></g></g><g style="display: none;" transform="matrix(1,0,0,1,490,370)" opacity="1"><g opacity="1" transform="matrix(1,0,0,1,0,0)"><path stroke-linecap="butt" stroke-linejoin="miter" fill-opacity="0" stroke-miterlimit="4" stroke="rgb(45,163,212)" stroke-opacity="1" stroke-width="5" d="M0 0"></path></g></g><g style="display: none;" transform="matrix(1,0,0,1,490,370)" opacity="1"><g opacity="1" transform="matrix(1,0,0,1,0,0)"><path stroke-linecap="butt" stroke-linejoin="miter" fill-opacity="0" stroke-miterlimit="4" stroke="rgb(45,163,212)" stroke-opacity="1" stroke-width="5" d=" M14.147000312805176,11.23900032043457 C25.92300033569336,15.843000411987305 34,19 34,19"></path></g></g><g style="display: none;" transform="matrix(1,0,0,1,490,370)" opacity="1"><g opacity="1" transform="matrix(1,0,0,1,0,0)"><path stroke-linecap="butt" stroke-linejoin="miter" fill-opacity="0" stroke-miterlimit="4" stroke="rgb(45,163,212)" stroke-opacity="1" stroke-width="5" d=" M-76,-24 C-76,-24 -20.100000381469727,-2.1480000019073486 12.00100040435791,10.399999618530273"></path></g></g></g></svg>